# xmcd CD database file
#
# Track frame offsets:
#	150
#	53591
#	79089
#	82652
#	109533
#	141807
#	163408
#	208144
#	210787
#	231850
#	249648
#	265407
#	288570
#	305997
#	327377
#	345241
#
# Disc length: 4777 seconds
#
# Revision: 0
# Processed by: cddbd v1.5.2PL0 Copyright (c) Steve Scherf et al.
# Submitted via: CDex 1.70beta2
#
DISCID=e412a710
DTITLE=Dizzy Gillespie - Four Classic Albums CD1
DYEAR=1954
DGENRE=Jazz
TTITLE0=Dizzy's Blues
TTITLE1=School Days
TTITLE2=Dizzy Speaks
TTITLE3=Doodlin'
TTITLE4=Manteca
TTITLE5=I Remember Clifford
TTITLE6=Cool Breeze
TTITLE7=Sign Off
TTITLE8=Roses Of Picardy
TTITLE9=Silhouette
TTITLE10=Can You Recall?
TTITLE11=O Solow
TTITLE12=Cool Eyes
TTITLE13=Confusion
TTITLE14=Pile Driver
TTITLE15=Hob Nail Special
EXTD=YEAR: 1954
EXTT0=
EXTT1=
EXTT2=
EXTT3=
EXTT4=
EXTT5=
EXTT6=
EXTT7=
EXTT8=
EXTT9=
EXTT10=
EXTT11=
EXTT12=
EXTT13=
EXTT14=
EXTT15=
PLAYORDER=
